<svg width="779" height="149" viewBox="0 0 779 149" fill="none" xmlns="http://www.w3.org/2000/svg">
<g filter="url(#filter0_d_5_19)">
<rect x="7" y="7" width="765" height="135" rx="15" fill="white"/>
</g>
<path d="M263.744 66H261.378L270.373 41.2727H272.787L281.782 66H279.416L271.665 44.2067H271.496L263.744 66ZM265.447 56.522H277.714V58.5504H265.447V56.522ZM287.723 54.4091V66H285.574V47.4545H287.662V50.3643H287.856C288.29 49.4145 288.966 48.6539 289.884 48.0824C290.81 47.5028 291.953 47.2131 293.313 47.2131C294.561 47.2131 295.655 47.4747 296.597 47.9979C297.547 48.513 298.283 49.2737 298.807 50.2798C299.338 51.286 299.604 52.5215 299.604 53.9865V66H297.454V54.1193C297.454 52.598 297.028 51.3946 296.175 50.5092C295.329 49.6238 294.194 49.1811 292.77 49.1811C291.796 49.1811 290.93 49.3904 290.174 49.8089C289.417 50.2275 288.818 50.8312 288.375 51.62C287.94 52.4008 287.723 53.3305 287.723 54.4091ZM335.544 53.6364C335.544 56.2121 335.086 58.4538 334.168 60.3615C333.25 62.2611 331.987 63.7341 330.377 64.7805C328.775 65.8189 326.932 66.3381 324.847 66.3381C322.762 66.3381 320.915 65.8189 319.305 64.7805C317.703 63.7341 316.444 62.2611 315.526 60.3615C314.616 58.4538 314.162 56.2121 314.162 53.6364C314.162 51.0606 314.616 48.8229 315.526 46.9233C316.444 45.0156 317.707 43.5426 319.317 42.5043C320.927 41.4579 322.77 40.9347 324.847 40.9347C326.932 40.9347 328.775 41.4579 330.377 42.5043C331.987 43.5426 333.25 45.0156 334.168 46.9233C335.086 48.8229 335.544 51.0606 335.544 53.6364ZM333.347 53.6364C333.347 51.4228 332.977 49.5272 332.236 47.9496C331.496 46.3639 330.485 45.1525 329.206 44.3153C327.926 43.4782 326.473 43.0597 324.847 43.0597C323.229 43.0597 321.78 43.4782 320.5 44.3153C319.221 45.1525 318.206 46.3598 317.458 47.9375C316.717 49.5152 316.347 51.4148 316.347 53.6364C316.347 55.8499 316.717 57.7455 317.458 59.3232C318.198 60.9008 319.208 62.1122 320.488 62.9574C321.768 63.7945 323.221 64.2131 324.847 64.2131C326.473 64.2131 327.926 63.7945 329.206 62.9574C330.493 62.1203 331.508 60.9129 332.248 59.3352C332.989 57.7495 333.355 55.8499 333.347 53.6364ZM340.558 72.9545V47.4545H342.647V50.9922H342.9C343.158 50.4368 343.512 49.8693 343.963 49.2898C344.414 48.7022 345.009 48.2071 345.75 47.8047C346.498 47.4022 347.44 47.201 348.575 47.201C350.104 47.201 351.441 47.6035 352.584 48.4084C353.735 49.2053 354.628 50.3241 355.264 51.7649C355.908 53.1977 356.23 54.8679 356.23 56.7756C356.23 58.6913 355.908 60.3696 355.264 61.8104C354.628 63.2512 353.735 64.3741 352.584 65.179C351.441 65.9839 350.113 66.3864 348.599 66.3864C347.48 66.3864 346.543 66.1851 345.786 65.7827C345.037 65.3802 344.43 64.8852 343.963 64.2976C343.504 63.7019 343.15 63.1224 342.9 62.5589H342.707V72.9545H340.558ZM342.683 56.7393C342.683 58.2365 342.904 59.5646 343.347 60.7237C343.798 61.8748 344.442 62.7803 345.279 63.4403C346.124 64.0923 347.146 64.4183 348.346 64.4183C349.577 64.4183 350.616 64.0803 351.461 63.4041C352.314 62.7199 352.962 61.7983 353.405 60.6392C353.855 59.4801 354.081 58.1802 354.081 56.7393C354.081 55.3146 353.859 54.0308 353.417 52.8878C352.982 51.7448 352.338 50.8393 351.485 50.1712C350.632 49.495 349.585 49.157 348.346 49.157C347.138 49.157 346.112 49.483 345.267 50.1349C344.422 50.7789 343.778 51.6723 343.335 52.8153C342.9 53.9503 342.683 55.2583 342.683 56.7393ZM368.249 47.4545V49.326H359.399V47.4545H368.249ZM362.164 43.0114H364.325V61.1584C364.325 61.9311 364.458 62.5388 364.724 62.9815C364.99 63.4162 365.336 63.7261 365.762 63.9112C366.189 64.0883 366.644 64.1768 367.127 64.1768C367.408 64.1768 367.65 64.1607 367.851 64.1286C368.052 64.0883 368.229 64.0481 368.382 64.0078L368.841 65.9517C368.632 66.0322 368.374 66.1046 368.068 66.169C367.762 66.2415 367.384 66.2777 366.933 66.2777C366.145 66.2777 365.384 66.1046 364.651 65.7585C363.927 65.4124 363.331 64.8973 362.865 64.2131C362.398 63.5289 362.164 62.6797 362.164 61.6655V43.0114ZM373.154 66V47.4545H375.316V66H373.154ZM374.253 44.267C373.81 44.267 373.432 44.1181 373.118 43.8203C372.804 43.5144 372.647 43.1482 372.647 42.7216C372.647 42.295 372.804 41.9328 373.118 41.6349C373.432 41.3291 373.81 41.1761 374.253 41.1761C374.696 41.1761 375.074 41.3291 375.388 41.6349C375.702 41.9328 375.859 42.295 375.859 42.7216C375.859 43.1482 375.702 43.5144 375.388 43.8203C375.074 44.1181 374.696 44.267 374.253 44.267ZM380.999 66V47.4545H383.088V50.304H383.281C383.652 49.3461 384.267 48.5935 385.129 48.0462C385.998 47.4908 387.04 47.2131 388.256 47.2131C389.536 47.2131 390.586 47.5149 391.407 48.1186C392.236 48.7143 392.856 49.5353 393.267 50.5817H393.423C393.842 49.5514 394.522 48.7344 395.464 48.1307C396.414 47.5189 397.565 47.2131 398.917 47.2131C400.64 47.2131 402 47.7564 402.998 48.843C403.996 49.9216 404.495 51.4993 404.495 53.576V66H402.346V53.576C402.346 52.111 401.972 51.0123 401.223 50.2798C400.475 49.5473 399.489 49.1811 398.265 49.1811C396.848 49.1811 395.758 49.6158 394.993 50.4851C394.228 51.3544 393.846 52.4571 393.846 53.7933V66H391.649V53.3828C391.649 52.1271 391.298 51.1129 390.598 50.3402C389.898 49.5675 388.912 49.1811 387.64 49.1811C386.787 49.1811 386.018 49.3904 385.334 49.8089C384.658 50.2275 384.123 50.8111 383.728 51.5597C383.342 52.3002 383.149 53.1534 383.149 54.1193V66H380.999ZM410.209 66V47.4545H412.37V66H410.209ZM411.308 44.267C410.865 44.267 410.487 44.1181 410.173 43.8203C409.859 43.5144 409.702 43.1482 409.702 42.7216C409.702 42.295 409.859 41.9328 410.173 41.6349C410.487 41.3291 410.865 41.1761 411.308 41.1761C411.751 41.1761 412.129 41.3291 412.443 41.6349C412.757 41.9328 412.914 42.295 412.914 42.7216C412.914 43.1482 412.757 43.5144 412.443 43.8203C412.129 44.1181 411.751 44.267 411.308 44.267ZM417.475 66V64.2976L428.196 49.6399V49.483H417.933V47.4545H430.961V49.2294L420.433 63.8146V63.9716H431.347V66H417.475ZM441.263 66.4226C440.144 66.4226 439.122 66.2053 438.196 65.7706C437.271 65.3279 436.534 64.692 435.987 63.8629C435.44 63.0258 435.166 62.0116 435.166 60.8203C435.166 59.9027 435.339 59.13 435.685 58.5021C436.031 57.8743 436.522 57.3591 437.158 56.9567C437.794 56.5542 438.547 56.2363 439.416 56.0028C440.285 55.7694 441.243 55.5883 442.289 55.4595C443.328 55.3307 444.205 55.218 444.922 55.1214C445.646 55.0249 446.197 54.8719 446.576 54.6626C446.954 54.4534 447.143 54.1153 447.143 53.6484V53.2138C447.143 51.95 446.765 50.956 446.008 50.2315C445.26 49.4991 444.181 49.1328 442.772 49.1328C441.436 49.1328 440.346 49.4266 439.5 50.0142C438.663 50.6018 438.076 51.294 437.738 52.0909L435.697 51.3544C436.116 50.3402 436.695 49.5312 437.436 48.9276C438.176 48.3158 439.005 47.8771 439.923 47.6115C440.841 47.3378 441.77 47.201 442.712 47.201C443.42 47.201 444.157 47.2936 444.922 47.4787C445.694 47.6638 446.411 47.9858 447.071 48.4446C447.731 48.8954 448.266 49.5272 448.676 50.3402C449.087 51.1451 449.292 52.1674 449.292 53.407V66H447.143V63.0661H447.01C446.753 63.6134 446.37 64.1446 445.863 64.6598C445.356 65.175 444.72 65.5975 443.956 65.9276C443.191 66.2576 442.293 66.4226 441.263 66.4226ZM441.553 64.4545C442.696 64.4545 443.686 64.201 444.523 63.6939C445.36 63.1868 446.004 62.5147 446.455 61.6776C446.914 60.8324 447.143 59.9027 447.143 58.8885V56.2081C446.982 56.361 446.712 56.4979 446.334 56.6186C445.964 56.7393 445.533 56.848 445.042 56.9446C444.559 57.0331 444.076 57.1096 443.593 57.174C443.11 57.2384 442.676 57.2947 442.289 57.343C441.243 57.4718 440.35 57.6731 439.609 57.9467C438.868 58.2204 438.301 58.5987 437.907 59.0817C437.512 59.5566 437.315 60.1683 437.315 60.9169C437.315 62.0438 437.717 62.9171 438.522 63.5369C439.327 64.1487 440.337 64.4545 441.553 64.4545ZM462.314 47.4545V49.326H453.464V47.4545H462.314ZM456.229 43.0114H458.39V61.1584C458.39 61.9311 458.523 62.5388 458.788 62.9815C459.054 63.4162 459.4 63.7261 459.827 63.9112C460.253 64.0883 460.708 64.1768 461.191 64.1768C461.473 64.1768 461.714 64.1607 461.915 64.1286C462.117 64.0883 462.294 64.0481 462.447 64.0078L462.906 65.9517C462.696 66.0322 462.439 66.1046 462.133 66.169C461.827 66.2415 461.449 66.2777 460.998 66.2777C460.209 66.2777 459.448 66.1046 458.716 65.7585C457.991 65.4124 457.396 64.8973 456.929 64.2131C456.462 63.5289 456.229 62.6797 456.229 61.6655V43.0114ZM467.219 66V47.4545H469.38V66H467.219ZM468.318 44.267C467.875 44.267 467.497 44.1181 467.183 43.8203C466.869 43.5144 466.712 43.1482 466.712 42.7216C466.712 42.295 466.869 41.9328 467.183 41.6349C467.497 41.3291 467.875 41.1761 468.318 41.1761C468.76 41.1761 469.139 41.3291 469.453 41.6349C469.767 41.9328 469.923 42.295 469.923 42.7216C469.923 43.1482 469.767 43.5144 469.453 43.8203C469.139 44.1181 468.76 44.267 468.318 44.267ZM482.272 66.3864C480.67 66.3864 479.254 65.9799 478.022 65.1669C476.799 64.3539 475.841 63.2311 475.148 61.7983C474.456 60.3575 474.11 58.6953 474.11 56.8118C474.11 54.9122 474.456 53.242 475.148 51.8011C475.841 50.3523 476.799 49.2254 478.022 48.4205C479.254 47.6075 480.67 47.201 482.272 47.201C483.874 47.201 485.286 47.6075 486.51 48.4205C487.733 49.2334 488.691 50.3603 489.384 51.8011C490.084 53.242 490.434 54.9122 490.434 56.8118C490.434 58.6953 490.088 60.3575 489.396 61.7983C488.703 63.2311 487.741 64.3539 486.51 65.1669C485.286 65.9799 483.874 66.3864 482.272 66.3864ZM482.272 64.4183C483.56 64.4183 484.651 64.0722 485.544 63.38C486.438 62.6877 487.114 61.7661 487.572 60.6151C488.039 59.464 488.273 58.1963 488.273 56.8118C488.273 55.4273 488.039 54.1555 487.572 52.9964C487.114 51.8374 486.438 50.9077 485.544 50.2074C484.651 49.5071 483.56 49.157 482.272 49.157C480.992 49.157 479.902 49.5071 479 50.2074C478.107 50.9077 477.426 51.8374 476.96 52.9964C476.501 54.1555 476.271 55.4273 476.271 56.8118C476.271 58.1963 476.501 59.464 476.96 60.6151C477.426 61.7661 478.107 62.6877 479 63.38C479.893 64.0722 480.984 64.4183 482.272 64.4183ZM497.301 54.4091V66H495.152V47.4545H497.241V50.3643H497.434C497.868 49.4145 498.545 48.6539 499.462 48.0824C500.388 47.5028 501.531 47.2131 502.891 47.2131C504.139 47.2131 505.233 47.4747 506.175 47.9979C507.125 48.513 507.862 49.2737 508.385 50.2798C508.916 51.286 509.182 52.5215 509.182 53.9865V66H507.032V54.1193C507.032 52.598 506.606 51.3946 505.753 50.5092C504.907 49.6238 503.773 49.1811 502.348 49.1811C501.374 49.1811 500.509 49.3904 499.752 49.8089C498.995 50.2275 498.396 50.8312 497.953 51.62C497.518 52.4008 497.301 53.3305 497.301 54.4091ZM524.85 66V41.2727H539.158V43.3011H527.108V52.6101H538.035V54.6385H527.108V66H524.85ZM544.126 66V47.4545H546.215V50.304H546.372C546.742 49.3703 547.386 48.6177 548.304 48.0462C549.23 47.4666 550.276 47.1768 551.443 47.1768C551.62 47.1768 551.817 47.1809 552.035 47.1889C552.252 47.197 552.433 47.205 552.578 47.2131V49.3984C552.482 49.3823 552.313 49.3582 552.071 49.326C551.83 49.2938 551.568 49.2777 551.286 49.2777C550.32 49.2777 549.459 49.483 548.702 49.8935C547.954 50.2959 547.362 50.8553 546.928 51.5717C546.493 52.2881 546.276 53.1051 546.276 54.0227V66H544.126ZM561.425 66.4226C560.306 66.4226 559.284 66.2053 558.358 65.7706C557.433 65.3279 556.696 64.692 556.149 63.8629C555.602 63.0258 555.328 62.0116 555.328 60.8203C555.328 59.9027 555.501 59.13 555.847 58.5021C556.193 57.8743 556.684 57.3591 557.32 56.9567C557.956 56.5542 558.709 56.2363 559.578 56.0028C560.447 55.7694 561.405 55.5883 562.452 55.4595C563.49 55.3307 564.367 55.218 565.084 55.1214C565.808 55.0249 566.359 54.8719 566.738 54.6626C567.116 54.4534 567.305 54.1153 567.305 53.6484V53.2138C567.305 51.95 566.927 50.956 566.17 50.2315C565.422 49.4991 564.343 49.1328 562.934 49.1328C561.598 49.1328 560.508 49.4266 559.662 50.0142C558.825 50.6018 558.238 51.294 557.9 52.0909L555.859 51.3544C556.278 50.3402 556.857 49.5312 557.598 48.9276C558.338 48.3158 559.167 47.8771 560.085 47.6115C561.003 47.3378 561.932 47.201 562.874 47.201C563.582 47.201 564.319 47.2936 565.084 47.4787C565.856 47.6638 566.573 47.9858 567.233 48.4446C567.893 48.8954 568.428 49.5272 568.839 50.3402C569.249 51.1451 569.454 52.1674 569.454 53.407V66H567.305V63.0661H567.172C566.915 63.6134 566.532 64.1446 566.025 64.6598C565.518 65.175 564.882 65.5975 564.118 65.9276C563.353 66.2576 562.456 66.4226 561.425 66.4226ZM561.715 64.4545C562.858 64.4545 563.848 64.201 564.685 63.6939C565.522 63.1868 566.166 62.5147 566.617 61.6776C567.076 60.8324 567.305 59.9027 567.305 58.8885V56.2081C567.144 56.361 566.875 56.4979 566.496 56.6186C566.126 56.7393 565.695 56.848 565.204 56.9446C564.721 57.0331 564.238 57.1096 563.756 57.174C563.273 57.2384 562.838 57.2947 562.452 57.343C561.405 57.4718 560.512 57.6731 559.771 57.9467C559.031 58.2204 558.463 58.5987 558.069 59.0817C557.674 59.5566 557.477 60.1683 557.477 60.9169C557.477 62.0438 557.88 62.9171 558.684 63.5369C559.489 64.1487 560.5 64.4545 561.715 64.4545ZM575.171 66V47.4545H577.26V50.304H577.453C577.824 49.3461 578.439 48.5935 579.301 48.0462C580.17 47.4908 581.212 47.2131 582.428 47.2131C583.708 47.2131 584.758 47.5149 585.579 48.1186C586.408 48.7143 587.028 49.5353 587.438 50.5817H587.595C588.014 49.5514 588.694 48.7344 589.636 48.1307C590.586 47.5189 591.737 47.2131 593.089 47.2131C594.811 47.2131 596.172 47.7564 597.17 48.843C598.168 49.9216 598.667 51.4993 598.667 53.576V66H596.518V53.576C596.518 52.111 596.144 51.0123 595.395 50.2798C594.646 49.5473 593.66 49.1811 592.437 49.1811C591.02 49.1811 589.93 49.6158 589.165 50.4851C588.4 51.3544 588.018 52.4571 588.018 53.7933V66H585.82V53.3828C585.82 52.1271 585.47 51.1129 584.77 50.3402C584.07 49.5675 583.084 49.1811 581.812 49.1811C580.959 49.1811 580.19 49.3904 579.506 49.8089C578.83 50.2275 578.294 50.8111 577.9 51.5597C577.514 52.3002 577.32 53.1534 577.32 54.1193V66H575.171ZM611.855 66.3864C610.124 66.3864 608.627 65.9839 607.363 65.179C606.1 64.366 605.122 63.2431 604.429 61.8104C603.745 60.3696 603.403 58.7114 603.403 56.8359C603.403 54.9685 603.745 53.3104 604.429 51.8615C605.122 50.4046 606.075 49.2656 607.291 48.4446C608.514 47.6155 609.927 47.201 611.529 47.201C612.535 47.201 613.505 47.3861 614.439 47.7564C615.372 48.1186 616.209 48.678 616.95 49.4347C617.699 50.1832 618.29 51.129 618.725 52.272C619.159 53.407 619.377 54.7512 619.377 56.3047V57.3672H604.888V55.4716H617.179C617.179 54.2803 616.938 53.2098 616.455 52.2599C615.98 51.3021 615.316 50.5455 614.463 49.9901C613.618 49.4347 612.64 49.157 611.529 49.157C610.354 49.157 609.319 49.4709 608.426 50.0987C607.532 50.7266 606.832 51.5556 606.325 52.5859C605.826 53.6162 605.572 54.7431 605.564 55.9666V57.1016C605.564 58.5746 605.818 59.8625 606.325 60.9652C606.84 62.0599 607.569 62.9091 608.51 63.5128C609.452 64.1165 610.567 64.4183 611.855 64.4183C612.732 64.4183 613.501 64.2815 614.161 64.0078C614.829 63.7341 615.388 63.3679 615.839 62.9091C616.298 62.4422 616.644 61.9311 616.877 61.3757L618.918 62.0398C618.636 62.8205 618.173 63.541 617.529 64.201C616.894 64.861 616.097 65.3923 615.139 65.7947C614.189 66.1892 613.094 66.3864 611.855 66.3864ZM628.23 66L622.628 47.4545H624.898L629.292 62.7521H629.449L633.832 47.4545H636.114L640.461 62.7159H640.63L645.025 47.4545H647.295L641.692 66H639.471L635.076 50.799H634.846L630.452 66H628.23ZM658.049 66.3864C656.448 66.3864 655.031 65.9799 653.799 65.1669C652.576 64.3539 651.618 63.2311 650.926 61.7983C650.234 60.3575 649.887 58.6953 649.887 56.8118C649.887 54.9122 650.234 53.242 650.926 51.8011C651.618 50.3523 652.576 49.2254 653.799 48.4205C655.031 47.6075 656.448 47.201 658.049 47.201C659.651 47.201 661.064 47.6075 662.287 48.4205C663.511 49.2334 664.469 50.3603 665.161 51.8011C665.861 53.242 666.211 54.9122 666.211 56.8118C666.211 58.6953 665.865 60.3575 665.173 61.7983C664.481 63.2311 663.519 64.3539 662.287 65.1669C661.064 65.9799 659.651 66.3864 658.049 66.3864ZM658.049 64.4183C659.337 64.4183 660.428 64.0722 661.321 63.38C662.215 62.6877 662.891 61.7661 663.35 60.6151C663.817 59.464 664.05 58.1963 664.05 56.8118C664.05 55.4273 663.817 54.1555 663.35 52.9964C662.891 51.8374 662.215 50.9077 661.321 50.2074C660.428 49.5071 659.337 49.157 658.049 49.157C656.77 49.157 655.679 49.5071 654.777 50.2074C653.884 50.9077 653.204 51.8374 652.737 52.9964C652.278 54.1555 652.049 55.4273 652.049 56.8118C652.049 58.1963 652.278 59.464 652.737 60.6151C653.204 61.7661 653.884 62.6877 654.777 63.38C655.671 64.0722 656.761 64.4183 658.049 64.4183ZM670.929 66V47.4545H673.018V50.304H673.175C673.545 49.3703 674.189 48.6177 675.107 48.0462C676.032 47.4666 677.079 47.1768 678.246 47.1768C678.423 47.1768 678.62 47.1809 678.838 47.1889C679.055 47.197 679.236 47.205 679.381 47.2131V49.3984C679.284 49.3823 679.115 49.3582 678.874 49.326C678.632 49.2938 678.371 49.2777 678.089 49.2777C677.123 49.2777 676.262 49.483 675.505 49.8935C674.757 50.2959 674.165 50.8553 673.73 51.5717C673.296 52.2881 673.078 53.1051 673.078 54.0227V66H670.929ZM685.004 58.9972L684.98 56.1839H685.463L694.156 47.4545H696.873L688.288 56.0511L688.095 56.0874L685.004 58.9972ZM683.048 66V41.2727H685.197V66H683.048ZM694.603 66L687.069 56.4737L688.614 54.9886L697.356 66H694.603ZM718.105 47.4545V49.326H708.989V47.4545H718.105ZM711.838 66V44.7379C711.838 43.7398 712.068 42.8987 712.527 42.2145C712.993 41.5303 713.601 41.0111 714.35 40.657C715.098 40.3028 715.891 40.1257 716.728 40.1257C717.292 40.1257 717.759 40.174 718.129 40.2706C718.507 40.3591 718.805 40.4477 719.022 40.5362L718.395 42.4197C718.234 42.3714 718.036 42.3151 717.803 42.2507C717.569 42.1863 717.276 42.1541 716.922 42.1541C715.988 42.1541 715.267 42.4157 714.76 42.9389C714.253 43.4621 714 44.2107 714 45.1847L713.988 66H711.838ZM728.838 66.3864C727.237 66.3864 725.82 65.9799 724.588 65.1669C723.365 64.3539 722.407 63.2311 721.715 61.7983C721.023 60.3575 720.676 58.6953 720.676 56.8118C720.676 54.9122 721.023 53.242 721.715 51.8011C722.407 50.3523 723.365 49.2254 724.588 48.4205C725.82 47.6075 727.237 47.201 728.838 47.201C730.44 47.201 731.853 47.6075 733.076 48.4205C734.3 49.2334 735.258 50.3603 735.95 51.8011C736.65 53.242 737 54.9122 737 56.8118C737 58.6953 736.654 60.3575 735.962 61.7983C735.27 63.2311 734.308 64.3539 733.076 65.1669C731.853 65.9799 730.44 66.3864 728.838 66.3864ZM728.838 64.4183C730.126 64.4183 731.217 64.0722 732.11 63.38C733.004 62.6877 733.68 61.7661 734.139 60.6151C734.606 59.464 734.839 58.1963 734.839 56.8118C734.839 55.4273 734.606 54.1555 734.139 52.9964C733.68 51.8374 733.004 50.9077 732.11 50.2074C731.217 49.5071 730.126 49.157 728.838 49.157C727.559 49.157 726.468 49.5071 725.566 50.2074C724.673 50.9077 723.993 51.8374 723.526 52.9964C723.067 54.1555 722.838 55.4273 722.838 56.8118C722.838 58.1963 723.067 59.464 723.526 60.6151C723.993 61.7661 724.673 62.6877 725.566 63.38C726.46 64.0722 727.551 64.4183 728.838 64.4183ZM741.718 66V47.4545H743.807V50.304H743.964C744.334 49.3703 744.978 48.6177 745.896 48.0462C746.821 47.4666 747.868 47.1768 749.035 47.1768C749.212 47.1768 749.409 47.1809 749.627 47.1889C749.844 47.197 750.025 47.205 750.17 47.2131V49.3984C750.073 49.3823 749.904 49.3582 749.663 49.326C749.421 49.2938 749.16 49.2777 748.878 49.2777C747.912 49.2777 747.051 49.483 746.294 49.8935C745.546 50.2959 744.954 50.8553 744.519 51.5717C744.085 52.2881 743.867 53.1051 743.867 54.0227V66H741.718ZM239.005 107V82.2727H241.263V104.972H253.047V107H239.005ZM262.863 107.423C261.744 107.423 260.722 107.205 259.796 106.771C258.87 106.328 258.134 105.692 257.586 104.863C257.039 104.026 256.765 103.012 256.765 101.82C256.765 100.903 256.939 100.13 257.285 99.5021C257.631 98.8743 258.122 98.3591 258.758 97.9567C259.394 97.5542 260.146 97.2363 261.015 97.0028C261.885 96.7694 262.843 96.5883 263.889 96.4595C264.927 96.3307 265.805 96.218 266.521 96.1214C267.246 96.0249 267.797 95.8719 268.175 95.6626C268.554 95.4534 268.743 95.1153 268.743 94.6484V94.2138C268.743 92.95 268.364 91.956 267.608 91.2315C266.859 90.4991 265.781 90.1328 264.372 90.1328C263.036 90.1328 261.945 90.4266 261.1 91.0142C260.263 91.6018 259.675 92.294 259.337 93.0909L257.297 92.3544C257.715 91.3402 258.295 90.5312 259.035 89.9276C259.776 89.3158 260.605 88.8771 261.523 88.6115C262.44 88.3378 263.37 88.201 264.312 88.201C265.02 88.201 265.756 88.2936 266.521 88.4787C267.294 88.6638 268.01 88.9858 268.67 89.4446C269.33 89.8954 269.866 90.5272 270.276 91.3402C270.687 92.1451 270.892 93.1674 270.892 94.407V107H268.743V104.066H268.61C268.352 104.613 267.97 105.145 267.463 105.66C266.956 106.175 266.32 106.598 265.555 106.928C264.791 107.258 263.893 107.423 262.863 107.423ZM263.153 105.455C264.296 105.455 265.286 105.201 266.123 104.694C266.96 104.187 267.604 103.515 268.055 102.678C268.513 101.832 268.743 100.903 268.743 99.8885V97.2081C268.582 97.361 268.312 97.4979 267.934 97.6186C267.564 97.7393 267.133 97.848 266.642 97.9446C266.159 98.0331 265.676 98.1096 265.193 98.174C264.71 98.2384 264.275 98.2947 263.889 98.343C262.843 98.4718 261.949 98.6731 261.209 98.9467C260.468 99.2204 259.901 99.5987 259.506 100.082C259.112 100.557 258.915 101.168 258.915 101.917C258.915 103.044 259.317 103.917 260.122 104.537C260.927 105.149 261.937 105.455 263.153 105.455ZM276.609 107V88.4545H278.698V91.304H278.855C279.225 90.3703 279.869 89.6177 280.786 89.0462C281.712 88.4666 282.758 88.1768 283.926 88.1768C284.103 88.1768 284.3 88.1809 284.517 88.1889C284.735 88.197 284.916 88.205 285.061 88.2131V90.3984C284.964 90.3823 284.795 90.3582 284.553 90.326C284.312 90.2938 284.05 90.2777 283.769 90.2777C282.803 90.2777 281.941 90.483 281.185 90.8935C280.436 91.2959 279.845 91.8553 279.41 92.5717C278.975 93.2881 278.758 94.1051 278.758 95.0227V107H276.609ZM295.239 114.341C293.975 114.341 292.868 114.176 291.919 113.846C290.969 113.524 290.168 113.081 289.516 112.518C288.864 111.954 288.357 111.322 287.994 110.622L289.757 109.463C290.023 109.93 290.377 110.389 290.82 110.839C291.271 111.29 291.854 111.665 292.57 111.962C293.295 112.26 294.184 112.409 295.239 112.409C296.881 112.409 298.205 111.999 299.211 111.178C300.225 110.357 300.732 109.081 300.732 107.35V103.173H300.539C300.29 103.736 299.932 104.299 299.465 104.863C298.998 105.418 298.386 105.881 297.629 106.251C296.881 106.622 295.951 106.807 294.84 106.807C293.359 106.807 292.043 106.441 290.892 105.708C289.749 104.976 288.848 103.929 288.188 102.569C287.536 101.201 287.21 99.5705 287.21 97.679C287.21 95.8035 287.528 94.1534 288.164 92.7287C288.807 91.304 289.705 90.1932 290.856 89.3963C292.007 88.5994 293.347 88.201 294.877 88.201C296.012 88.201 296.953 88.4022 297.702 88.8047C298.45 89.1991 299.05 89.6901 299.501 90.2777C299.96 90.8653 300.318 91.4368 300.575 91.9922H300.793V88.4545H302.894V107.483C302.894 109.053 302.56 110.344 301.892 111.359C301.223 112.373 300.314 113.121 299.163 113.604C298.012 114.095 296.704 114.341 295.239 114.341ZM295.094 104.839C296.285 104.839 297.303 104.553 298.149 103.982C298.994 103.402 299.642 102.573 300.093 101.494C300.543 100.416 300.769 99.1319 300.769 97.6428C300.769 96.1939 300.547 94.91 300.105 93.7912C299.662 92.6643 299.018 91.7789 298.173 91.1349C297.336 90.483 296.309 90.157 295.094 90.157C293.854 90.157 292.808 90.491 291.955 91.1591C291.102 91.8272 290.458 92.7287 290.023 93.8636C289.588 94.9905 289.371 96.2502 289.371 97.6428C289.371 99.0594 289.592 100.311 290.035 101.398C290.478 102.476 291.126 103.321 291.979 103.933C292.832 104.537 293.87 104.839 295.094 104.839ZM316.081 107.386C314.351 107.386 312.854 106.984 311.59 106.179C310.326 105.366 309.348 104.243 308.656 102.81C307.972 101.37 307.63 99.7114 307.63 97.8359C307.63 95.9685 307.972 94.3104 308.656 92.8615C309.348 91.4046 310.302 90.2656 311.517 89.4446C312.741 88.6155 314.154 88.201 315.755 88.201C316.761 88.201 317.731 88.3861 318.665 88.7564C319.599 89.1186 320.436 89.678 321.176 90.4347C321.925 91.1832 322.517 92.129 322.951 93.272C323.386 94.407 323.603 95.7512 323.603 97.3047V98.3672H309.115V96.4716H321.406C321.406 95.2803 321.164 94.2098 320.681 93.2599C320.207 92.3021 319.542 91.5455 318.689 90.9901C317.844 90.4347 316.866 90.157 315.755 90.157C314.58 90.157 313.546 90.4709 312.652 91.0987C311.759 91.7266 311.059 92.5556 310.551 93.5859C310.052 94.6162 309.799 95.7431 309.791 96.9666V98.1016C309.791 99.5746 310.044 100.862 310.551 101.965C311.067 103.06 311.795 103.909 312.737 104.513C313.679 105.116 314.793 105.418 316.081 105.418C316.959 105.418 317.727 105.281 318.387 105.008C319.056 104.734 319.615 104.368 320.066 103.909C320.525 103.442 320.871 102.931 321.104 102.376L323.145 103.04C322.863 103.821 322.4 104.541 321.756 105.201C321.12 105.861 320.323 106.392 319.365 106.795C318.416 107.189 317.321 107.386 316.081 107.386ZM338.349 95.3849V97.4134H328.062V95.3849H338.349ZM357.618 88.4545C357.482 87.0781 356.874 85.9834 355.795 85.1705C354.717 84.3575 353.36 83.951 351.726 83.951C350.575 83.951 349.561 84.1482 348.684 84.5426C347.814 84.937 347.13 85.4844 346.631 86.1847C346.14 86.8769 345.895 87.6657 345.895 88.5511C345.895 89.2031 346.036 89.7746 346.317 90.2656C346.599 90.7566 346.977 91.1792 347.452 91.5334C347.935 91.8795 348.466 92.1773 349.046 92.4268C349.634 92.6764 350.225 92.8857 350.821 93.0547L353.429 93.8033C354.218 94.0206 355.006 94.2983 355.795 94.6364C356.584 94.9744 357.305 95.401 357.957 95.9162C358.617 96.4233 359.144 97.0471 359.538 97.7876C359.941 98.5201 360.142 99.4015 360.142 100.432C360.142 101.752 359.8 102.939 359.116 103.994C358.431 105.048 357.449 105.885 356.17 106.505C354.89 107.117 353.356 107.423 351.569 107.423C349.887 107.423 348.426 107.145 347.187 106.589C345.947 106.026 344.973 105.249 344.265 104.259C343.556 103.269 343.158 102.122 343.069 100.818H345.388C345.468 101.792 345.79 102.617 346.354 103.293C346.917 103.969 347.649 104.485 348.551 104.839C349.452 105.185 350.459 105.358 351.569 105.358C352.801 105.358 353.896 105.153 354.854 104.742C355.819 104.324 356.576 103.744 357.123 103.004C357.679 102.255 357.957 101.386 357.957 100.396C357.957 99.5585 357.739 98.8582 357.305 98.2947C356.87 97.7232 356.262 97.2443 355.481 96.858C354.709 96.4716 353.811 96.1295 352.789 95.8317L349.831 94.9624C347.891 94.3828 346.386 93.5819 345.315 92.5597C344.245 91.5374 343.709 90.2334 343.709 88.6477C343.709 87.3196 344.064 86.1525 344.772 85.1463C345.488 84.1321 346.454 83.3433 347.67 82.7798C348.893 82.2083 350.265 81.9226 351.787 81.9226C353.324 81.9226 354.684 82.2043 355.868 82.7678C357.051 83.3312 357.989 84.108 358.681 85.098C359.381 86.08 359.756 87.1989 359.804 88.4545H357.618ZM372.373 107.386C370.715 107.386 369.27 106.972 368.038 106.143C366.815 105.314 365.865 104.179 365.189 102.738C364.513 101.297 364.175 99.6551 364.175 97.8118C364.175 95.9524 364.517 94.2983 365.201 92.8494C365.893 91.4006 366.851 90.2656 368.074 89.4446C369.298 88.6155 370.719 88.201 372.336 88.201C373.576 88.201 374.699 88.4425 375.705 88.9254C376.711 89.4003 377.54 90.0724 378.192 90.9418C378.852 91.803 379.267 92.8092 379.436 93.9602H377.263C377.037 92.9138 376.494 92.0204 375.633 91.2798C374.779 90.5312 373.693 90.157 372.373 90.157C371.189 90.157 370.143 90.4789 369.233 91.1229C368.324 91.7588 367.612 92.6482 367.096 93.7912C366.589 94.9261 366.336 96.2422 366.336 97.7393C366.336 99.2446 366.585 100.577 367.084 101.736C367.583 102.887 368.284 103.788 369.185 104.44C370.095 105.092 371.157 105.418 372.373 105.418C373.194 105.418 373.942 105.265 374.618 104.96C375.303 104.646 375.874 104.203 376.333 103.631C376.8 103.06 377.114 102.38 377.275 101.591H379.448C379.287 102.71 378.889 103.708 378.253 104.585C377.625 105.455 376.808 106.139 375.802 106.638C374.804 107.137 373.661 107.386 372.373 107.386ZM389.234 107.423C388.115 107.423 387.093 107.205 386.167 106.771C385.241 106.328 384.505 105.692 383.958 104.863C383.41 104.026 383.137 103.012 383.137 101.82C383.137 100.903 383.31 100.13 383.656 99.5021C384.002 98.8743 384.493 98.3591 385.129 97.9567C385.765 97.5542 386.517 97.2363 387.387 97.0028C388.256 96.7694 389.214 96.5883 390.26 96.4595C391.298 96.3307 392.176 96.218 392.892 96.1214C393.617 96.0249 394.168 95.8719 394.546 95.6626C394.925 95.4534 395.114 95.1153 395.114 94.6484V94.2138C395.114 92.95 394.736 91.956 393.979 91.2315C393.23 90.4991 392.152 90.1328 390.743 90.1328C389.407 90.1328 388.316 90.4266 387.471 91.0142C386.634 91.6018 386.046 92.294 385.708 93.0909L383.668 92.3544C384.086 91.3402 384.666 90.5312 385.406 89.9276C386.147 89.3158 386.976 88.8771 387.894 88.6115C388.811 88.3378 389.741 88.201 390.683 88.201C391.391 88.201 392.128 88.2936 392.892 88.4787C393.665 88.6638 394.381 88.9858 395.041 89.4446C395.701 89.8954 396.237 90.5272 396.647 91.3402C397.058 92.1451 397.263 93.1674 397.263 94.407V107H395.114V104.066H394.981C394.723 104.613 394.341 105.145 393.834 105.66C393.327 106.175 392.691 106.598 391.926 106.928C391.162 107.258 390.264 107.423 389.234 107.423ZM389.524 105.455C390.667 105.455 391.657 105.201 392.494 104.694C393.331 104.187 393.975 103.515 394.426 102.678C394.884 101.832 395.114 100.903 395.114 99.8885V97.2081C394.953 97.361 394.683 97.4979 394.305 97.6186C393.935 97.7393 393.504 97.848 393.013 97.9446C392.53 98.0331 392.047 98.1096 391.564 98.174C391.081 98.2384 390.646 98.2947 390.26 98.343C389.214 98.4718 388.32 98.6731 387.58 98.9467C386.839 99.2204 386.272 99.5987 385.877 100.082C385.483 100.557 385.286 101.168 385.286 101.917C385.286 103.044 385.688 103.917 386.493 104.537C387.298 105.149 388.308 105.455 389.524 105.455ZM405.129 82.2727V107H402.98V82.2727H405.129ZM418.314 107.386C416.583 107.386 415.086 106.984 413.822 106.179C412.559 105.366 411.581 104.243 410.888 102.81C410.204 101.37 409.862 99.7114 409.862 97.8359C409.862 95.9685 410.204 94.3104 410.888 92.8615C411.581 91.4046 412.534 90.2656 413.75 89.4446C414.973 88.6155 416.386 88.201 417.988 88.201C418.994 88.201 419.964 88.3861 420.898 88.7564C421.831 89.1186 422.668 89.678 423.409 90.4347C424.157 91.1832 424.749 92.129 425.184 93.272C425.618 94.407 425.836 95.7512 425.836 97.3047V98.3672H411.347V96.4716H423.638C423.638 95.2803 423.397 94.2098 422.914 93.2599C422.439 92.3021 421.775 91.5455 420.922 90.9901C420.077 90.4347 419.099 90.157 417.988 90.157C416.813 90.157 415.778 90.4709 414.885 91.0987C413.991 91.7266 413.291 92.5556 412.784 93.5859C412.285 94.6162 412.031 95.7431 412.023 96.9666V98.1016C412.023 99.5746 412.277 100.862 412.784 101.965C413.299 103.06 414.028 103.909 414.969 104.513C415.911 105.116 417.026 105.418 418.314 105.418C419.191 105.418 419.96 105.281 420.62 105.008C421.288 104.734 421.847 104.368 422.298 103.909C422.757 103.442 423.103 102.931 423.336 102.376L425.377 103.04C425.095 103.821 424.632 104.541 423.988 105.201C423.353 105.861 422.556 106.392 421.598 106.795C420.648 107.189 419.553 107.386 418.314 107.386ZM440.581 107V82.2727H448.562C450.317 82.2727 451.781 82.5907 452.957 83.2266C454.14 83.8544 455.029 84.7277 455.625 85.8466C456.229 86.9574 456.531 88.2332 456.531 89.674C456.531 91.1148 456.229 92.3866 455.625 93.4893C455.029 94.5921 454.144 95.4534 452.969 96.0732C451.794 96.6929 450.337 97.0028 448.598 97.0028H441.8V94.9382H448.538C449.826 94.9382 450.896 94.7249 451.749 94.2983C452.611 93.8717 453.25 93.264 453.669 92.4751C454.096 91.6863 454.309 90.7526 454.309 89.674C454.309 88.5954 454.096 87.6536 453.669 86.8487C453.242 86.0357 452.598 85.4079 451.737 84.9652C450.884 84.5225 449.805 84.3011 448.501 84.3011H442.839V107H440.581ZM451.484 95.8438L457.569 107H454.961L448.936 95.8438H451.484ZM468.882 107.386C467.152 107.386 465.654 106.984 464.391 106.179C463.127 105.366 462.149 104.243 461.457 102.81C460.772 101.37 460.43 99.7114 460.43 97.8359C460.43 95.9685 460.772 94.3104 461.457 92.8615C462.149 91.4046 463.103 90.2656 464.318 89.4446C465.542 88.6155 466.954 88.201 468.556 88.201C469.562 88.201 470.532 88.3861 471.466 88.7564C472.4 89.1186 473.237 89.678 473.977 90.4347C474.726 91.1832 475.317 92.129 475.752 93.272C476.187 94.407 476.404 95.7512 476.404 97.3047V98.3672H461.915V96.4716H474.207C474.207 95.2803 473.965 94.2098 473.482 93.2599C473.007 92.3021 472.343 91.5455 471.49 90.9901C470.645 90.4347 469.667 90.157 468.556 90.157C467.381 90.157 466.347 90.4709 465.453 91.0987C464.56 91.7266 463.859 92.5556 463.352 93.5859C462.853 94.6162 462.6 95.7431 462.592 96.9666V98.1016C462.592 99.5746 462.845 100.862 463.352 101.965C463.867 103.06 464.596 103.909 465.538 104.513C466.479 105.116 467.594 105.418 468.882 105.418C469.759 105.418 470.528 105.281 471.188 105.008C471.856 104.734 472.416 104.368 472.866 103.909C473.325 103.442 473.671 102.931 473.905 102.376L475.945 103.04C475.664 103.821 475.201 104.541 474.557 105.201C473.921 105.861 473.124 106.392 472.166 106.795C471.216 107.189 470.122 107.386 468.882 107.386ZM493.6 92.5234L491.632 93.0788C491.439 92.5234 491.165 92.0204 490.811 91.5696C490.457 91.1188 489.994 90.7607 489.423 90.495C488.859 90.2294 488.159 90.0966 487.322 90.0966C486.066 90.0966 485.036 90.3944 484.231 90.9901C483.426 91.5857 483.024 92.3544 483.024 93.2962C483.024 94.093 483.297 94.741 483.845 95.2401C484.4 95.7311 485.253 96.1214 486.404 96.4112L489.205 97.0994C490.759 97.4777 491.922 98.0774 492.695 98.8984C493.476 99.7195 493.866 100.75 493.866 101.989C493.866 103.036 493.576 103.965 492.997 104.778C492.417 105.591 491.608 106.231 490.57 106.698C489.539 107.157 488.344 107.386 486.984 107.386C485.173 107.386 483.68 106.98 482.504 106.167C481.329 105.346 480.577 104.163 480.247 102.617L482.311 102.11C482.577 103.213 483.096 104.046 483.869 104.609C484.65 105.173 485.676 105.455 486.948 105.455C488.372 105.455 489.511 105.137 490.365 104.501C491.218 103.857 491.644 103.052 491.644 102.086C491.644 101.337 491.395 100.71 490.896 100.202C490.397 99.6873 489.64 99.3089 488.626 99.0675L485.595 98.343C483.985 97.9567 482.794 97.3449 482.021 96.5078C481.249 95.6707 480.862 94.6323 480.862 93.3928C480.862 92.3705 481.14 91.473 481.695 90.7003C482.251 89.9195 483.016 89.3078 483.99 88.8651C484.963 88.4223 486.074 88.201 487.322 88.201C489.02 88.201 490.377 88.5874 491.391 89.3601C492.413 90.1248 493.15 91.1792 493.6 92.5234ZM505.78 107.386C504.178 107.386 502.761 106.98 501.53 106.167C500.306 105.354 499.348 104.231 498.656 102.798C497.964 101.357 497.618 99.6953 497.618 97.8118C497.618 95.9122 497.964 94.242 498.656 92.8011C499.348 91.3523 500.306 90.2254 501.53 89.4205C502.761 88.6075 504.178 88.201 505.78 88.201C507.382 88.201 508.794 88.6075 510.018 89.4205C511.241 90.2334 512.199 91.3603 512.891 92.8011C513.592 94.242 513.942 95.9122 513.942 97.8118C513.942 99.6953 513.596 101.357 512.903 102.798C512.211 104.231 511.249 105.354 510.018 106.167C508.794 106.98 507.382 107.386 505.78 107.386ZM505.78 105.418C507.068 105.418 508.158 105.072 509.052 104.38C509.945 103.688 510.621 102.766 511.08 101.615C511.547 100.464 511.781 99.1963 511.781 97.8118C511.781 96.4273 511.547 95.1555 511.08 93.9964C510.621 92.8374 509.945 91.9077 509.052 91.2074C508.158 90.5071 507.068 90.157 505.78 90.157C504.5 90.157 503.409 90.5071 502.508 91.2074C501.614 91.9077 500.934 92.8374 500.467 93.9964C500.009 95.1555 499.779 96.4273 499.779 97.8118C499.779 99.1963 500.009 100.464 500.467 101.615C500.934 102.766 501.614 103.688 502.508 104.38C503.401 105.072 504.492 105.418 505.78 105.418ZM530.444 99.9126V88.4545H532.593V107H530.444V103.921H530.275C529.84 104.871 529.152 105.664 528.21 106.3C527.268 106.928 526.117 107.241 524.757 107.241C523.574 107.241 522.523 106.984 521.606 106.469C520.688 105.946 519.968 105.181 519.444 104.175C518.921 103.169 518.66 101.933 518.66 100.468V88.4545H520.809V100.335C520.809 101.784 521.235 102.951 522.089 103.837C522.942 104.714 524.037 105.153 525.373 105.153C526.21 105.153 527.015 104.951 527.787 104.549C528.56 104.147 529.196 103.559 529.695 102.786C530.194 102.005 530.444 101.048 530.444 99.9126ZM538.283 107V88.4545H540.371V91.304H540.528C540.899 90.3703 541.543 89.6177 542.46 89.0462C543.386 88.4666 544.432 88.1768 545.599 88.1768C545.777 88.1768 545.974 88.1809 546.191 88.1889C546.408 88.197 546.589 88.205 546.734 88.2131V90.3984C546.638 90.3823 546.469 90.3582 546.227 90.326C545.986 90.2938 545.724 90.2777 545.442 90.2777C544.477 90.2777 543.615 90.483 542.859 90.8935C542.11 91.2959 541.518 91.8553 541.084 92.5717C540.649 93.2881 540.432 94.1051 540.432 95.0227V107H538.283ZM557.082 107.386C555.424 107.386 553.979 106.972 552.747 106.143C551.524 105.314 550.574 104.179 549.898 102.738C549.222 101.297 548.884 99.6551 548.884 97.8118C548.884 95.9524 549.226 94.2983 549.91 92.8494C550.602 91.4006 551.56 90.2656 552.783 89.4446C554.007 88.6155 555.428 88.201 557.045 88.201C558.285 88.201 559.408 88.4425 560.414 88.9254C561.42 89.4003 562.249 90.0724 562.901 90.9418C563.561 91.803 563.976 92.8092 564.145 93.9602H561.972C561.746 92.9138 561.203 92.0204 560.342 91.2798C559.488 90.5312 558.402 90.157 557.082 90.157C555.898 90.157 554.852 90.4789 553.942 91.1229C553.033 91.7588 552.321 92.6482 551.805 93.7912C551.298 94.9261 551.045 96.2422 551.045 97.7393C551.045 99.2446 551.294 100.577 551.793 101.736C552.292 102.887 552.993 103.788 553.894 104.44C554.804 105.092 555.866 105.418 557.082 105.418C557.903 105.418 558.651 105.265 559.327 104.96C560.012 104.646 560.583 104.203 561.042 103.631C561.509 103.06 561.823 102.38 561.984 101.591H564.157C563.996 102.71 563.598 103.708 562.962 104.585C562.334 105.455 561.517 106.139 560.511 106.638C559.513 107.137 558.37 107.386 557.082 107.386ZM576.261 107.386C574.53 107.386 573.033 106.984 571.77 106.179C570.506 105.366 569.528 104.243 568.836 102.81C568.151 101.37 567.809 99.7114 567.809 97.8359C567.809 95.9685 568.151 94.3104 568.836 92.8615C569.528 91.4046 570.482 90.2656 571.697 89.4446C572.921 88.6155 574.333 88.201 575.935 88.201C576.941 88.201 577.911 88.3861 578.845 88.7564C579.779 89.1186 580.616 89.678 581.356 90.4347C582.105 91.1832 582.696 92.129 583.131 93.272C583.566 94.407 583.783 95.7512 583.783 97.3047V98.3672H569.294V96.4716H581.586C581.586 95.2803 581.344 94.2098 580.861 93.2599C580.386 92.3021 579.722 91.5455 578.869 90.9901C578.024 90.4347 577.046 90.157 575.935 90.157C574.76 90.157 573.725 90.4709 572.832 91.0987C571.939 91.7266 571.238 92.5556 570.731 93.5859C570.232 94.6162 569.979 95.7431 569.971 96.9666V98.1016C569.971 99.5746 570.224 100.862 570.731 101.965C571.246 103.06 571.975 103.909 572.917 104.513C573.858 105.116 574.973 105.418 576.261 105.418C577.138 105.418 577.907 105.281 578.567 105.008C579.235 104.734 579.795 104.368 580.245 103.909C580.704 103.442 581.05 102.931 581.284 102.376L583.324 103.04C583.042 103.821 582.58 104.541 581.936 105.201C581.3 105.861 580.503 106.392 579.545 106.795C578.595 107.189 577.501 107.386 576.261 107.386ZM598.564 107H596.198L605.193 82.2727H607.608L616.603 107H614.236L606.485 85.2067H606.316L598.564 107ZM600.267 97.522H612.534V99.5504H600.267V97.522ZM622.543 82.2727V107H620.394V82.2727H622.543ZM630.379 82.2727V107H628.23V82.2727H630.379ZM643.274 107.386C641.672 107.386 640.256 106.98 639.024 106.167C637.8 105.354 636.843 104.231 636.15 102.798C635.458 101.357 635.112 99.6953 635.112 97.8118C635.112 95.9122 635.458 94.242 636.15 92.8011C636.843 91.3523 637.8 90.2254 639.024 89.4205C640.256 88.6075 641.672 88.201 643.274 88.201C644.876 88.201 646.288 88.6075 647.512 89.4205C648.735 90.2334 649.693 91.3603 650.385 92.8011C651.086 94.242 651.436 95.9122 651.436 97.8118C651.436 99.6953 651.09 101.357 650.398 102.798C649.705 104.231 648.743 105.354 647.512 106.167C646.288 106.98 644.876 107.386 643.274 107.386ZM643.274 105.418C644.562 105.418 645.653 105.072 646.546 104.38C647.439 103.688 648.116 102.766 648.574 101.615C649.041 100.464 649.275 99.1963 649.275 97.8118C649.275 96.4273 649.041 95.1555 648.574 93.9964C648.116 92.8374 647.439 91.9077 646.546 91.2074C645.653 90.5071 644.562 90.157 643.274 90.157C641.994 90.157 640.903 90.5071 640.002 91.2074C639.108 91.9077 638.428 92.8374 637.961 93.9964C637.503 95.1555 637.273 96.4273 637.273 97.8118C637.273 99.1963 637.503 100.464 637.961 101.615C638.428 102.766 639.108 103.688 640.002 104.38C640.895 105.072 641.986 105.418 643.274 105.418ZM663.398 107.386C661.74 107.386 660.295 106.972 659.064 106.143C657.84 105.314 656.89 104.179 656.214 102.738C655.538 101.297 655.2 99.6551 655.2 97.8118C655.2 95.9524 655.542 94.2983 656.226 92.8494C656.918 91.4006 657.876 90.2656 659.1 89.4446C660.323 88.6155 661.744 88.201 663.362 88.201C664.601 88.201 665.724 88.4425 666.73 88.9254C667.737 89.4003 668.566 90.0724 669.218 90.9418C669.878 91.803 670.292 92.8092 670.461 93.9602H668.288C668.063 92.9138 667.519 92.0204 666.658 91.2798C665.805 90.5312 664.718 90.157 663.398 90.157C662.215 90.157 661.168 90.4789 660.259 91.1229C659.349 91.7588 658.637 92.6482 658.122 93.7912C657.615 94.9261 657.361 96.2422 657.361 97.7393C657.361 99.2446 657.611 100.577 658.11 101.736C658.609 102.887 659.309 103.788 660.211 104.44C661.12 105.092 662.183 105.418 663.398 105.418C664.219 105.418 664.968 105.265 665.644 104.96C666.328 104.646 666.9 104.203 667.358 103.631C667.825 103.06 668.139 102.38 668.3 101.591H670.473C670.312 102.71 669.914 103.708 669.278 104.585C668.65 105.455 667.833 106.139 666.827 106.638C665.829 107.137 664.686 107.386 663.398 107.386ZM680.259 107.423C679.14 107.423 678.118 107.205 677.192 106.771C676.267 106.328 675.53 105.692 674.983 104.863C674.436 104.026 674.162 103.012 674.162 101.82C674.162 100.903 674.335 100.13 674.681 99.5021C675.027 98.8743 675.518 98.3591 676.154 97.9567C676.79 97.5542 677.543 97.2363 678.412 97.0028C679.281 96.7694 680.239 96.5883 681.286 96.4595C682.324 96.3307 683.201 96.218 683.918 96.1214C684.642 96.0249 685.193 95.8719 685.572 95.6626C685.95 95.4534 686.139 95.1153 686.139 94.6484V94.2138C686.139 92.95 685.761 91.956 685.004 91.2315C684.256 90.4991 683.177 90.1328 681.768 90.1328C680.432 90.1328 679.342 90.4266 678.496 91.0142C677.659 91.6018 677.072 92.294 676.734 93.0909L674.693 92.3544C675.112 91.3402 675.691 90.5312 676.432 89.9276C677.172 89.3158 678.001 88.8771 678.919 88.6115C679.837 88.3378 680.766 88.201 681.708 88.201C682.416 88.201 683.153 88.2936 683.918 88.4787C684.69 88.6638 685.407 88.9858 686.067 89.4446C686.727 89.8954 687.262 90.5272 687.673 91.3402C688.083 92.1451 688.288 93.1674 688.288 94.407V107H686.139V104.066H686.006C685.749 104.613 685.366 105.145 684.859 105.66C684.352 106.175 683.716 106.598 682.952 106.928C682.187 107.258 681.29 107.423 680.259 107.423ZM680.549 105.455C681.692 105.455 682.682 105.201 683.519 104.694C684.356 104.187 685 103.515 685.451 102.678C685.91 101.832 686.139 100.903 686.139 99.8885V97.2081C685.978 97.361 685.709 97.4979 685.33 97.6186C684.96 97.7393 684.529 97.848 684.038 97.9446C683.555 98.0331 683.072 98.1096 682.589 98.174C682.107 98.2384 681.672 98.2947 681.286 98.343C680.239 98.4718 679.346 98.6731 678.605 98.9467C677.865 99.2204 677.297 99.5987 676.903 100.082C676.508 100.557 676.311 101.168 676.311 101.917C676.311 103.044 676.714 103.917 677.518 104.537C678.323 105.149 679.334 105.455 680.549 105.455ZM701.31 88.4545V90.326H692.46V88.4545H701.31ZM695.225 84.0114H697.386V102.158C697.386 102.931 697.519 103.539 697.784 103.982C698.05 104.416 698.396 104.726 698.823 104.911C699.249 105.088 699.704 105.177 700.187 105.177C700.469 105.177 700.71 105.161 700.912 105.129C701.113 105.088 701.29 105.048 701.443 105.008L701.902 106.952C701.692 107.032 701.435 107.105 701.129 107.169C700.823 107.241 700.445 107.278 699.994 107.278C699.205 107.278 698.444 107.105 697.712 106.759C696.988 106.412 696.392 105.897 695.925 105.213C695.458 104.529 695.225 103.68 695.225 102.665V84.0114ZM706.215 107V88.4545H708.376V107H706.215ZM707.314 85.267C706.871 85.267 706.493 85.1181 706.179 84.8203C705.865 84.5144 705.708 84.1482 705.708 83.7216C705.708 83.295 705.865 82.9328 706.179 82.6349C706.493 82.3291 706.871 82.1761 707.314 82.1761C707.756 82.1761 708.135 82.3291 708.449 82.6349C708.763 82.9328 708.92 83.295 708.92 83.7216C708.92 84.1482 708.763 84.5144 708.449 84.8203C708.135 85.1181 707.756 85.267 707.314 85.267ZM721.268 107.386C719.666 107.386 718.25 106.98 717.018 106.167C715.795 105.354 714.837 104.231 714.145 102.798C713.452 101.357 713.106 99.6953 713.106 97.8118C713.106 95.9122 713.452 94.242 714.145 92.8011C714.837 91.3523 715.795 90.2254 717.018 89.4205C718.25 88.6075 719.666 88.201 721.268 88.201C722.87 88.201 724.283 88.6075 725.506 89.4205C726.73 90.2334 727.687 91.3603 728.38 92.8011C729.08 94.242 729.43 95.9122 729.43 97.8118C729.43 99.6953 729.084 101.357 728.392 102.798C727.699 104.231 726.738 105.354 725.506 106.167C724.283 106.98 722.87 107.386 721.268 107.386ZM721.268 105.418C722.556 105.418 723.647 105.072 724.54 104.38C725.434 103.688 726.11 102.766 726.569 101.615C727.035 100.464 727.269 99.1963 727.269 97.8118C727.269 96.4273 727.035 95.1555 726.569 93.9964C726.11 92.8374 725.434 91.9077 724.54 91.2074C723.647 90.5071 722.556 90.157 721.268 90.157C719.988 90.157 718.898 90.5071 717.996 91.2074C717.103 91.9077 716.422 92.8374 715.956 93.9964C715.497 95.1555 715.267 96.4273 715.267 97.8118C715.267 99.1963 715.497 100.464 715.956 101.615C716.422 102.766 717.103 103.688 717.996 104.38C718.89 105.072 719.98 105.418 721.268 105.418ZM736.297 95.4091V107H734.148V88.4545H736.237V91.3643H736.43C736.865 90.4145 737.541 89.6539 738.458 89.0824C739.384 88.5028 740.527 88.2131 741.887 88.2131C743.135 88.2131 744.23 88.4747 745.171 88.9979C746.121 89.513 746.858 90.2737 747.381 91.2798C747.912 92.286 748.178 93.5215 748.178 94.9865V107H746.029V95.1193C746.029 93.598 745.602 92.3946 744.749 91.5092C743.904 90.6238 742.769 90.1811 741.344 90.1811C740.37 90.1811 739.505 90.3904 738.748 90.8089C737.991 91.2275 737.392 91.8312 736.949 92.62C736.514 93.4008 736.297 94.3305 736.297 95.4091Z" fill="#333333"/>
<path d="M42.336 91.136L62.688 87.808L65.44 61.696L50.528 55.808L29.984 57.92L29.536 52.544L51.488 50.368L71.84 57.984L68.064 92.48L43.296 96.576L42.336 91.136ZM33.312 60.352H39.136L40.416 97.408H34.592L33.312 60.352ZM79.907 64.896L105.571 62.4L103.971 82.496H90.275V77.44H98.595L99.427 67.904L85.795 69.312L87.523 91.904L108.003 88.704L108.387 93.952L82.403 97.728L79.907 64.896Z" fill="#ED901F"/>
<path d="M131.336 91.136L151.688 87.808L154.44 61.696L139.528 55.808L118.984 57.92L118.536 52.544L140.488 50.368L160.84 57.984L157.064 92.48L132.296 96.576L131.336 91.136ZM122.312 60.352H128.136L129.416 97.408H123.592L122.312 60.352ZM168.907 64.896L194.571 62.4L192.971 82.496H179.275V77.44H187.595L188.427 67.904L174.795 69.312L176.523 91.904L197.003 88.704L197.387 93.952L171.403 97.728L168.907 64.896Z" fill="#44AA5F"/>
<path d="M57 41C72.4651 25.9075 109.11 4.77807 131.969 41M131.969 41L133 32.029M131.969 41L123.574 38.4143" stroke="#ACACAC" stroke-width="5" stroke-linecap="round"/>
<path d="M40.5 121.38C40.5 120.3 40.2467 119.467 39.74 118.88C39.2333 118.28 38.5733 117.98 37.76 117.98C37.3067 117.98 36.9467 118 36.68 118.04C36.4267 118.08 36.2267 118.127 36.08 118.18V124.04C36.2667 124.213 36.54 124.373 36.9 124.52C37.26 124.667 37.6333 124.74 38.02 124.74C38.46 124.74 38.8333 124.653 39.14 124.48C39.46 124.307 39.72 124.073 39.92 123.78C40.12 123.473 40.2667 123.12 40.36 122.72C40.4533 122.307 40.5 121.86 40.5 121.38ZM42.2 121.38C42.2 122.087 42.1067 122.74 41.92 123.34C41.7467 123.927 41.4867 124.433 41.14 124.86C40.8067 125.287 40.3933 125.62 39.9 125.86C39.4067 126.1 38.8467 126.22 38.22 126.22C37.7267 126.22 37.2933 126.16 36.92 126.04C36.5467 125.92 36.2667 125.787 36.08 125.64V129.3H34.42V117C34.78 116.893 35.24 116.787 35.8 116.68C36.3733 116.573 37.0267 116.52 37.76 116.52C38.4267 116.52 39.0333 116.633 39.58 116.86C40.1267 117.087 40.5933 117.413 40.98 117.84C41.3667 118.253 41.6667 118.76 41.88 119.36C42.0933 119.96 42.2 120.633 42.2 121.38ZM47.18 115.28C46.8333 115.28 46.5333 115.16 46.28 114.92C46.0267 114.68 45.9 114.353 45.9 113.94C45.9 113.527 46.0267 113.2 46.28 112.96C46.5333 112.72 46.8333 112.6 47.18 112.6C47.54 112.6 47.84 112.72 48.08 112.96C48.3333 113.2 48.46 113.527 48.46 113.94C48.46 114.353 48.3333 114.68 48.08 114.92C47.84 115.16 47.54 115.28 47.18 115.28ZM46.76 118.1H44.08V116.72H48.4V122.42C48.4 123.34 48.5267 123.96 48.78 124.28C49.0333 124.587 49.4133 124.74 49.92 124.74C50.3067 124.74 50.66 124.693 50.98 124.6C51.3133 124.507 51.5733 124.407 51.76 124.3L52 125.7C51.92 125.74 51.8067 125.793 51.66 125.86C51.5133 125.913 51.34 125.967 51.14 126.02C50.9533 126.073 50.74 126.12 50.5 126.16C50.2733 126.2 50.0333 126.22 49.78 126.22C49.1933 126.22 48.7067 126.14 48.32 125.98C47.9333 125.82 47.62 125.58 47.38 125.26C47.1533 124.94 46.9933 124.547 46.9 124.08C46.8067 123.6 46.76 123.047 46.76 122.42V118.1ZM60.5 121.38C60.5 120.3 60.2467 119.467 59.74 118.88C59.2333 118.28 58.5733 117.98 57.76 117.98C57.3067 117.98 56.9467 118 56.68 118.04C56.4267 118.08 56.2267 118.127 56.08 118.18V124.04C56.2667 124.213 56.54 124.373 56.9 124.52C57.26 124.667 57.6333 124.74 58.02 124.74C58.46 124.74 58.8333 124.653 59.14 124.48C59.46 124.307 59.72 124.073 59.92 123.78C60.12 123.473 60.2667 123.12 60.36 122.72C60.4533 122.307 60.5 121.86 60.5 121.38ZM62.2 121.38C62.2 122.087 62.1067 122.74 61.92 123.34C61.7467 123.927 61.4867 124.433 61.14 124.86C60.8067 125.287 60.3933 125.62 59.9 125.86C59.4067 126.1 58.8467 126.22 58.22 126.22C57.7267 126.22 57.2933 126.16 56.92 126.04C56.5467 125.92 56.2667 125.787 56.08 125.64V129.3H54.42V117C54.78 116.893 55.24 116.787 55.8 116.68C56.3733 116.573 57.0267 116.52 57.76 116.52C58.4267 116.52 59.0333 116.633 59.58 116.86C60.1267 117.087 60.5933 117.413 60.98 117.84C61.3667 118.253 61.6667 118.76 61.88 119.36C62.0933 119.96 62.2 120.633 62.2 121.38ZM77.18 115.28C76.8333 115.28 76.5333 115.16 76.28 114.92C76.0267 114.68 75.9 114.353 75.9 113.94C75.9 113.527 76.0267 113.2 76.28 112.96C76.5333 112.72 76.8333 112.6 77.18 112.6C77.54 112.6 77.84 112.72 78.08 112.96C78.3333 113.2 78.46 113.527 78.46 113.94C78.46 114.353 78.3333 114.68 78.08 114.92C77.84 115.16 77.54 115.28 77.18 115.28ZM76.76 118.1H74.08V116.72H78.4V122.42C78.4 123.34 78.5267 123.96 78.78 124.28C79.0333 124.587 79.4133 124.74 79.92 124.74C80.3067 124.74 80.66 124.693 80.98 124.6C81.3133 124.507 81.5733 124.407 81.76 124.3L82 125.7C81.92 125.74 81.8067 125.793 81.66 125.86C81.5133 125.913 81.34 125.967 81.14 126.02C80.9533 126.073 80.74 126.12 80.5 126.16C80.2733 126.2 80.0333 126.22 79.78 126.22C79.1933 126.22 78.7067 126.14 78.32 125.98C77.9333 125.82 77.62 125.58 77.38 125.26C77.1533 124.94 76.9933 124.547 76.9 124.08C76.8067 123.6 76.76 123.047 76.76 122.42V118.1ZM84.42 116.98C85.02 116.833 85.6133 116.72 86.2 116.64C86.8 116.56 87.36 116.52 87.88 116.52C89.12 116.52 90.0533 116.84 90.68 117.48C91.32 118.12 91.64 119.147 91.64 120.56V126H90V120.86C90 120.26 89.9467 119.773 89.84 119.4C89.7333 119.027 89.58 118.74 89.38 118.54C89.1933 118.327 88.96 118.18 88.68 118.1C88.4133 118.02 88.12 117.98 87.8 117.98C87.5333 117.98 87.2467 118 86.94 118.04C86.6467 118.067 86.36 118.107 86.08 118.16V126H84.42V116.98ZM100.02 123.68C100.02 123.347 99.88 123.073 99.6 122.86C99.3333 122.647 98.9933 122.46 98.58 122.3C98.18 122.14 97.74 121.987 97.26 121.84C96.78 121.68 96.3333 121.487 95.92 121.26C95.52 121.033 95.18 120.753 94.9 120.42C94.6333 120.087 94.5 119.653 94.5 119.12C94.5 118.373 94.8 117.753 95.4 117.26C96.0133 116.753 96.9667 116.5 98.26 116.5C98.7667 116.5 99.2867 116.54 99.82 116.62C100.367 116.687 100.833 116.78 101.22 116.9L100.92 118.38C100.813 118.327 100.667 118.273 100.48 118.22C100.293 118.153 100.08 118.1 99.84 118.06C99.6 118.007 99.34 117.967 99.06 117.94C98.7933 117.913 98.5333 117.9 98.28 117.9C96.84 117.9 96.12 118.293 96.12 119.08C96.12 119.36 96.2533 119.6 96.52 119.8C96.8 119.987 97.1467 120.16 97.56 120.32C97.9733 120.48 98.42 120.647 98.9 120.82C99.38 120.98 99.8267 121.18 100.24 121.42C100.653 121.66 100.993 121.953 101.26 122.3C101.54 122.633 101.68 123.06 101.68 123.58C101.68 124.42 101.353 125.073 100.7 125.54C100.047 125.993 99.0133 126.22 97.6 126.22C96.96 126.22 96.3733 126.167 95.84 126.06C95.3067 125.953 94.8 125.793 94.32 125.58L94.64 124.08C95.1067 124.293 95.5933 124.473 96.1 124.62C96.62 124.753 97.1733 124.82 97.76 124.82C99.2667 124.82 100.02 124.44 100.02 123.68ZM107.86 116.72H111.78V118.1H107.86V122.42C107.86 122.887 107.893 123.267 107.96 123.56C108.027 123.853 108.133 124.093 108.28 124.28C108.44 124.453 108.64 124.573 108.88 124.64C109.12 124.707 109.413 124.74 109.76 124.74C110.24 124.74 110.627 124.7 110.92 124.62C111.213 124.54 111.493 124.433 111.76 124.3L112 125.7C111.813 125.78 111.513 125.887 111.1 126.02C110.7 126.153 110.2 126.22 109.6 126.22C108.907 126.22 108.34 126.14 107.9 125.98C107.46 125.82 107.113 125.58 106.86 125.26C106.62 124.94 106.453 124.547 106.36 124.08C106.267 123.6 106.22 123.047 106.22 122.42V118.1H104.26V116.72H106.22V114.12L107.86 113.84V116.72ZM118.1 124.82C118.513 124.82 118.88 124.807 119.2 124.78C119.533 124.753 119.807 124.72 120.02 124.68V121.92C119.807 121.853 119.547 121.8 119.24 121.76C118.947 121.72 118.633 121.7 118.3 121.7C117.993 121.7 117.693 121.727 117.4 121.78C117.107 121.82 116.847 121.9 116.62 122.02C116.393 122.14 116.207 122.3 116.06 122.5C115.913 122.687 115.84 122.927 115.84 123.22C115.84 123.82 116.04 124.24 116.44 124.48C116.853 124.707 117.407 124.82 118.1 124.82ZM117.94 116.5C118.633 116.5 119.213 116.587 119.68 116.76C120.16 116.933 120.547 117.173 120.84 117.48C121.133 117.787 121.34 118.16 121.46 118.6C121.58 119.04 121.64 119.52 121.64 120.04V125.84C121.253 125.907 120.74 125.987 120.1 126.08C119.473 126.173 118.827 126.22 118.16 126.22C117.653 126.22 117.16 126.173 116.68 126.08C116.2 126 115.773 125.853 115.4 125.64C115.027 125.413 114.727 125.107 114.5 124.72C114.273 124.333 114.16 123.84 114.16 123.24C114.16 122.707 114.273 122.26 114.5 121.9C114.74 121.527 115.04 121.227 115.4 121C115.773 120.773 116.193 120.613 116.66 120.52C117.14 120.413 117.62 120.36 118.1 120.36C118.753 120.36 119.393 120.433 120.02 120.58V120.12C120.02 119.84 119.987 119.573 119.92 119.32C119.867 119.053 119.753 118.813 119.58 118.6C119.42 118.387 119.193 118.22 118.9 118.1C118.62 117.967 118.253 117.9 117.8 117.9C117.227 117.9 116.727 117.94 116.3 118.02C115.873 118.1 115.547 118.18 115.32 118.26L115.12 116.9C115.347 116.793 115.72 116.7 116.24 116.62C116.773 116.54 117.34 116.5 117.94 116.5ZM129.76 126.22C129.173 126.22 128.687 126.14 128.3 125.98C127.913 125.82 127.607 125.58 127.38 125.26C127.153 124.94 126.993 124.547 126.9 124.08C126.807 123.6 126.76 123.047 126.76 122.42V113.64H124.08V112.24H128.4V122.42C128.4 122.887 128.427 123.267 128.48 123.56C128.547 123.853 128.64 124.093 128.76 124.28C128.893 124.453 129.053 124.573 129.24 124.64C129.427 124.707 129.647 124.74 129.9 124.74C130.287 124.74 130.647 124.693 130.98 124.6C131.313 124.507 131.573 124.407 131.76 124.3L132 125.7C131.92 125.74 131.807 125.793 131.66 125.86C131.513 125.913 131.34 125.967 131.14 126.02C130.94 126.073 130.72 126.12 130.48 126.16C130.253 126.2 130.013 126.22 129.76 126.22ZM139.76 126.22C139.173 126.22 138.687 126.14 138.3 125.98C137.913 125.82 137.607 125.58 137.38 125.26C137.153 124.94 136.993 124.547 136.9 124.08C136.807 123.6 136.76 123.047 136.76 122.42V113.64H134.08V112.24H138.4V122.42C138.4 122.887 138.427 123.267 138.48 123.56C138.547 123.853 138.64 124.093 138.76 124.28C138.893 124.453 139.053 124.573 139.24 124.64C139.427 124.707 139.647 124.74 139.9 124.74C140.287 124.74 140.647 124.693 140.98 124.6C141.313 124.507 141.573 124.407 141.76 124.3L142 125.7C141.92 125.74 141.807 125.793 141.66 125.86C141.513 125.913 141.34 125.967 141.14 126.02C140.94 126.073 140.72 126.12 140.48 126.16C140.253 126.2 140.013 126.22 139.76 126.22ZM159.92 118.68C159.733 118.507 159.46 118.347 159.1 118.2C158.74 118.04 158.367 117.96 157.98 117.96C157.54 117.96 157.16 118.047 156.84 118.22C156.533 118.393 156.28 118.633 156.08 118.94C155.88 119.233 155.733 119.593 155.64 120.02C155.547 120.433 155.5 120.88 155.5 121.36C155.5 122.44 155.753 123.273 156.26 123.86C156.767 124.447 157.427 124.74 158.24 124.74C158.653 124.74 159 124.72 159.28 124.68C159.573 124.64 159.787 124.6 159.92 124.56V118.68ZM159.92 112.42L161.58 112.14V125.74C161.22 125.847 160.76 125.953 160.2 126.06C159.64 126.167 158.987 126.22 158.24 126.22C157.573 126.22 156.967 126.107 156.42 125.88C155.873 125.653 155.407 125.333 155.02 124.92C154.633 124.493 154.333 123.98 154.12 123.38C153.907 122.78 153.8 122.107 153.8 121.36C153.8 120.64 153.887 119.987 154.06 119.4C154.247 118.8 154.513 118.287 154.86 117.86C155.207 117.433 155.62 117.1 156.1 116.86C156.593 116.62 157.153 116.5 157.78 116.5C158.273 116.5 158.707 116.56 159.08 116.68C159.453 116.8 159.733 116.927 159.92 117.06V112.42ZM168.18 116.5C169.433 116.5 170.4 116.893 171.08 117.68C171.76 118.453 172.1 119.633 172.1 121.22V121.8H165.46C165.527 122.76 165.84 123.493 166.4 124C166.973 124.493 167.773 124.74 168.8 124.74C169.387 124.74 169.887 124.693 170.3 124.6C170.713 124.507 171.027 124.407 171.24 124.3L171.46 125.7C171.26 125.807 170.9 125.92 170.38 126.04C169.86 126.16 169.273 126.22 168.62 126.22C167.82 126.22 167.113 126.1 166.5 125.86C165.9 125.607 165.4 125.267 165 124.84C164.6 124.413 164.3 123.907 164.1 123.32C163.9 122.72 163.8 122.073 163.8 121.38C163.8 120.553 163.927 119.833 164.18 119.22C164.433 118.607 164.767 118.1 165.18 117.7C165.593 117.3 166.06 117 166.58 116.8C167.1 116.6 167.633 116.5 168.18 116.5ZM170.42 120.46C170.42 119.673 170.213 119.053 169.8 118.6C169.387 118.133 168.84 117.9 168.16 117.9C167.773 117.9 167.42 117.973 167.1 118.12C166.793 118.267 166.527 118.46 166.3 118.7C166.073 118.94 165.893 119.213 165.76 119.52C165.627 119.827 165.54 120.14 165.5 120.46H170.42ZM179.92 118.68C179.733 118.507 179.46 118.347 179.1 118.2C178.74 118.04 178.367 117.96 177.98 117.96C177.54 117.96 177.16 118.047 176.84 118.22C176.533 118.393 176.28 118.633 176.08 118.94C175.88 119.233 175.733 119.593 175.64 120.02C175.547 120.433 175.5 120.88 175.5 121.36C175.5 122.44 175.753 123.273 176.26 123.86C176.767 124.447 177.427 124.74 178.24 124.74C178.653 124.74 179 124.72 179.28 124.68C179.573 124.64 179.787 124.6 179.92 124.56V118.68ZM179.92 112.42L181.58 112.14V125.74C181.22 125.847 180.76 125.953 180.2 126.06C179.64 126.167 178.987 126.22 178.24 126.22C177.573 126.22 176.967 126.107 176.42 125.88C175.873 125.653 175.407 125.333 175.02 124.92C174.633 124.493 174.333 123.98 174.12 123.38C173.907 122.78 173.8 122.107 173.8 121.36C173.8 120.64 173.887 119.987 174.06 119.4C174.247 118.8 174.513 118.287 174.86 117.86C175.207 117.433 175.62 117.1 176.1 116.86C176.593 116.62 177.153 116.5 177.78 116.5C178.273 116.5 178.707 116.56 179.08 116.68C179.453 116.8 179.733 116.927 179.92 117.06V112.42ZM188.18 116.5C189.433 116.5 190.4 116.893 191.08 117.68C191.76 118.453 192.1 119.633 192.1 121.22V121.8H185.46C185.527 122.76 185.84 123.493 186.4 124C186.973 124.493 187.773 124.74 188.8 124.74C189.387 124.74 189.887 124.693 190.3 124.6C190.713 124.507 191.027 124.407 191.24 124.3L191.46 125.7C191.26 125.807 190.9 125.92 190.38 126.04C189.86 126.16 189.273 126.22 188.62 126.22C187.82 126.22 187.113 126.1 186.5 125.86C185.9 125.607 185.4 125.267 185 124.84C184.6 124.413 184.3 123.907 184.1 123.32C183.9 122.72 183.8 122.073 183.8 121.38C183.8 120.553 183.927 119.833 184.18 119.22C184.433 118.607 184.767 118.1 185.18 117.7C185.593 117.3 186.06 117 186.58 116.8C187.1 116.6 187.633 116.5 188.18 116.5ZM190.42 120.46C190.42 119.673 190.213 119.053 189.8 118.6C189.387 118.133 188.84 117.9 188.16 117.9C187.773 117.9 187.42 117.973 187.1 118.12C186.793 118.267 186.527 118.46 186.3 118.7C186.073 118.94 185.893 119.213 185.76 119.52C185.627 119.827 185.54 120.14 185.5 120.46H190.42Z" fill="#7A7A7A"/>
<defs>
<filter id="filter0_d_5_19" x="0" y="0" width="779" height="149" filterUnits="userSpaceOnUse" color-interpolation-filters="sRGB">
<feFlood flood-opacity="0" result="BackgroundImageFix"/>
<feColorMatrix in="SourceAlpha" type="matrix" values="0 0 0 0 0 0 0 0 0 0 0 0 0 0 0 0 0 0 127 0" result="hardAlpha"/>
<feMorphology radius="2" operator="dilate" in="SourceAlpha" result="effect1_dropShadow_5_19"/>
<feOffset/>
<feGaussianBlur stdDeviation="2.5"/>
<feComposite in2="hardAlpha" operator="out"/>
<feColorMatrix type="matrix" values="0 0 0 0 0 0 0 0 0 0 0 0 0 0 0 0 0 0 0.25 0"/>
<feBlend mode="normal" in2="BackgroundImageFix" result="effect1_dropShadow_5_19"/>
<feBlend mode="normal" in="SourceGraphic" in2="effect1_dropShadow_5_19" result="shape"/>
</filter>
</defs>
</svg>
